<svg width="20" height="20" viewBox="0 0 20 20" fill="none" xmlns="http://www.w3.org/2000/svg">
<g clip-path="url(#clip0_10902_57)">
<path d="M14.1667 17.5V15.8333C14.1667 14.9493 13.8155 14.1014 13.1904 13.4763C12.5652 12.8512 11.7174 12.5 10.8333 12.5H4.16666C3.28261 12.5 2.43476 12.8512 1.80964 13.4763C1.18452 14.1014 0.833328 14.9493 0.833328 15.8333V17.5" stroke="url(#paint0_linear_10902_57)" stroke-width="2" stroke-linecap="round" stroke-linejoin="round"/>
<path d="M7.50001 9.16667C9.34095 9.16667 10.8333 7.67428 10.8333 5.83333C10.8333 3.99238 9.34095 2.5 7.50001 2.5C5.65906 2.5 4.16667 3.99238 4.16667 5.83333C4.16667 7.67428 5.65906 9.16667 7.50001 9.16667Z" stroke="url(#paint1_linear_10902_57)" stroke-width="2" stroke-linecap="round" stroke-linejoin="round"/>
<path d="M19.1667 17.5V15.8333C19.1661 15.0948 18.9203 14.3773 18.4678 13.7936C18.0153 13.2099 17.3818 12.793 16.6667 12.6083" stroke="url(#paint2_linear_10902_57)" stroke-width="2" stroke-linecap="round" stroke-linejoin="round"/>
<path d="M13.3333 2.60834C14.0503 2.79192 14.6859 3.20892 15.1397 3.7936C15.5935 4.37827 15.8399 5.09736 15.8399 5.8375C15.8399 6.57765 15.5935 7.29674 15.1397 7.88141C14.6859 8.46609 14.0503 8.88309 13.3333 9.06667" stroke="url(#paint3_linear_10902_57)" stroke-width="2" stroke-linecap="round" stroke-linejoin="round"/>
</g>
<defs>
<linearGradient id="paint0_linear_10902_57" x1="16.7921" y1="4.93616" x2="15.2892" y2="18.9475" gradientUnits="userSpaceOnUse">
<stop stop-color="#5498FF"/>
<stop offset="0.515625" stop-color="#428EFF"/>
<stop offset="1" stop-color="#297FFF"/>
</linearGradient>
<linearGradient id="paint1_linear_10902_57" x1="12.1461" y1="-7.58512" x2="7.14971" y2="9.88245" gradientUnits="userSpaceOnUse">
<stop stop-color="#5498FF"/>
<stop offset="0.515625" stop-color="#428EFF"/>
<stop offset="1" stop-color="#297FFF"/>
</linearGradient>
<linearGradient id="paint2_linear_10902_57" x1="19.6589" y1="5.20838" x2="13.7497" y2="15.7666" gradientUnits="userSpaceOnUse">
<stop stop-color="#5498FF"/>
<stop offset="0.515625" stop-color="#428EFF"/>
<stop offset="1" stop-color="#297FFF"/>
</linearGradient>
<linearGradient id="paint3_linear_10902_57" x1="16.3334" y1="-7.16162" x2="7.59059" y2="4.70108" gradientUnits="userSpaceOnUse">
<stop stop-color="#5498FF"/>
<stop offset="0.515625" stop-color="#428EFF"/>
<stop offset="1" stop-color="#297FFF"/>
</linearGradient>
<clipPath id="clip0_10902_57">
<rect width="20" height="20" fill="white"/>
</clipPath>
</defs>
</svg>
